<svg xmlns="http://www.w3.org/2000/svg" viewBox="0 0 32 32">
  <path fill="#F38020" d="M23.8 11.8c-.2-.6-.7-1-1.3-1h-8.6l.1-.2c.2-.9.9-1.6 1.8-1.6h7.5c.3 0 .6-.2.6-.5l.1-.6c0-.2 0-.3-.1-.5-.1-.1-.3-.2-.5-.2h-7.8c-2.1 0-3.9 1.5-4.3 3.6l-.1.3h-1.2c-.4 0-.8.3-.8.8l-.1.8c0 .1 0 .3.1.4.1.1.2.2.3.2h.9l-.6 3.8c-.2 1-.4 1.6-.7 2-.3.3-.7.4-1.2.4-.4 0-.8-.1-1.1-.2-.1 0-.2 0-.3.1-.1.1-.2.2-.2.3l-.2.8c0 .1 0 .3.1.4.1.1.3.2.4.2.4.1.9.1 1.3.1 1.1 0 1.9-.3 2.5-.9.6-.7 1-1.7 1.3-3.1l.6-3.6h9.5c.2 0 .4.2.4.4l.1.9c.3 1.9 1.9 3.3 3.9 3.3h2.5c.3 0 .5-.2.5-.5v-.7c0-.3-.2-.5-.5-.5h-2.5c-.9 0-1.6-.6-1.8-1.5l-.1-.5z"/>
  <path fill="#FAAD3F" d="M25.3 9.8h-.1c0 0-.1 0-.1.1l-.2.6c-.2.3-.1.5.1.7.1.2.3.3.5.3l.9.1c0 0 .1 0 .1.1 0 0 0 .1 0 .1 0 .1-.1.1-.1.1l-.9.1c-.5 0-1.1.4-1.3 1l-.1.2c0 0 0 .1.1.1h3.3c.1 0 .1 0 .1-.1.1-.2.1-.4.1-.7 0-1.3-1.1-2.4-2.4-2.4"/>
</svg>
